<?xml version="1.0" encoding="iso-8859-1"?>
<!-- Uploaded to: SVG Repo, www.svgrepo.com, Generator: SVG Repo Mixer Tools -->
<svg fill="#404040" height="80px" width="80px" version="1.1" id="Layer_1" xmlns="http://www.w3.org/2000/svg" xmlns:xlink="http://www.w3.org/1999/xlink" 
	 viewBox="0 0 492.308 492.308" xml:space="preserve">
<g>
	<g>
		<path d="M246.154,36.687C110.423,36.687,0,118.072,0,218.111c0,53.51,31.25,103.423,86.039,137.942L58.034,455.62l130.832-61.01
			c18.659,3.279,37.913,4.933,57.288,4.933c135.731,0,246.154-81.394,246.154-181.433S381.885,36.687,246.154,36.687z
			 M246.154,379.851c-19.26,0-38.375-1.74-56.817-5.163l-3.101-0.577l-97.625,45.529l20.462-72.76l-6.543-3.846
			c-52.644-30.962-82.837-76.49-82.837-124.923c0-89.183,101.591-161.731,226.462-161.731s226.462,72.548,226.462,161.731
			S371.024,379.851,246.154,379.851z"/>
	</g>
</g>
</svg>